<svg xmlns="http://www.w3.org/2000/svg" width="576" height="144" class="svgbob"><style>.svgbob line, .svgbob path, .svgbob circle, .svgbob rect, .svgbob polygon {
    stroke: black;
    stroke-width: 2;
    stroke-opacity: 1;
    fill-opacity: 1;
    stroke-linecap: round;
    stroke-linejoin: miter;
}
.svgbob text {
    white-space: pre;
    fill: black;
    font-family: Iosevka Fixed, monospace;
    font-size: 14px;
}
.svgbob rect.backdrop {
    stroke: none;
    fill: white;
}
.svgbob .broken {
    stroke-dasharray: 8;
}
.svgbob .filled {
    fill: black;
}
.svgbob .bg_filled {
    fill: white;
    stroke-width: 1;
}
.svgbob .nofill {
    fill: white;
}
.svgbob .end_marked_arrow {
    marker-end: url(#arrow);
}
.svgbob .start_marked_arrow {
    marker-start: url(#arrow);
}
.svgbob .end_marked_diamond {
    marker-end: url(#diamond);
}
.svgbob .start_marked_diamond {
    marker-start: url(#diamond);
}
.svgbob .end_marked_circle {
    marker-end: url(#circle);
}
.svgbob .start_marked_circle {
    marker-start: url(#circle);
}
.svgbob .end_marked_open_circle {
    marker-end: url(#open_circle);
}
.svgbob .start_marked_open_circle {
    marker-start: url(#open_circle);
}
.svgbob .end_marked_big_open_circle {
    marker-end: url(#big_open_circle);
}
.svgbob .start_marked_big_open_circle {
    marker-start: url(#big_open_circle);
}<!--separator--></style><defs><marker id="arrow" viewBox="-2 -2 8 8" refX="4" refY="2" markerWidth="7" markerHeight="7" orient="auto-start-reverse"><polygon points="0,0 0,4 4,2 0,0"></polygon></marker><marker id="diamond" viewBox="-2 -2 8 8" refX="4" refY="2" markerWidth="7" markerHeight="7" orient="auto-start-reverse"><polygon points="0,2 2,0 4,2 2,4 0,2"></polygon></marker><marker id="circle" viewBox="0 0 8 8" refX="4" refY="4" markerWidth="7" markerHeight="7" orient="auto-start-reverse"><circle cx="4" cy="4" r="2" class="filled"></circle></marker><marker id="open_circle" viewBox="0 0 8 8" refX="4" refY="4" markerWidth="7" markerHeight="7" orient="auto-start-reverse"><circle cx="4" cy="4" r="2" class="bg_filled"></circle></marker><marker id="big_open_circle" viewBox="0 0 8 8" refX="4" refY="4" markerWidth="7" markerHeight="7" orient="auto-start-reverse"><circle cx="4" cy="4" r="3" class="bg_filled"></circle></marker></defs><rect class="backdrop" x="0" y="0" width="576" height="144"></rect><rect x="8" y="8" width="8" height="8" class="solid filled" rx="0"></rect><rect x="16" y="0" width="8" height="16" class="solid filled" rx="0"></rect><rect x="64" y="0" width="8" height="16" class="solid filled" rx="0"></rect><rect x="72" y="8" width="8" height="8" class="solid filled" rx="0"></rect><rect x="0" y="16" width="8" height="16" class="solid filled" rx="0"></rect><rect x="8" y="16" width="8" height="16" class="solid filled" rx="0"></rect><rect x="16" y="16" width="8" height="16" class="solid filled" rx="0"></rect><rect x="64" y="16" width="8" height="16" class="solid filled" rx="0"></rect><rect x="72" y="16" width="8" height="16" class="solid filled" rx="0"></rect><rect x="80" y="16" width="8" height="16" class="solid filled" rx="0"></rect><rect x="0" y="32" width="8" height="16" class="solid filled" rx="0"></rect><rect x="8" y="32" width="8" height="16" class="solid filled" rx="0"></rect><rect x="16" y="32" width="8" height="16" class="solid filled" rx="0"></rect><rect x="64" y="32" width="8" height="16" class="solid filled" rx="0"></rect><rect x="72" y="32" width="8" height="16" class="solid filled" rx="0"></rect><rect x="80" y="32" width="8" height="16" class="solid filled" rx="0"></rect><rect x="0" y="48" width="8" height="16" class="solid filled" rx="0"></rect><rect x="8" y="48" width="8" height="16" class="solid filled" rx="0"></rect><rect x="16" y="48" width="8" height="16" class="solid filled" rx="0"></rect><rect x="64" y="48" width="8" height="16" class="solid filled" rx="0"></rect><rect x="72" y="48" width="8" height="16" class="solid filled" rx="0"></rect><rect x="80" y="48" width="8" height="16" class="solid filled" rx="0"></rect><rect x="0" y="64" width="8" height="16" class="solid filled" rx="0"></rect><rect x="8" y="64" width="8" height="16" class="solid filled" rx="0"></rect><rect x="16" y="64" width="8" height="16" class="solid filled" rx="0"></rect><rect x="64" y="64" width="8" height="16" class="solid filled" rx="0"></rect><rect x="72" y="64" width="8" height="16" class="solid filled" rx="0"></rect><rect x="80" y="64" width="8" height="16" class="solid filled" rx="0"></rect><rect x="0" y="80" width="8" height="16" class="solid filled" rx="0"></rect><rect x="8" y="80" width="8" height="16" class="solid filled" rx="0"></rect><rect x="16" y="80" width="8" height="16" class="solid filled" rx="0"></rect><rect x="64" y="80" width="8" height="16" class="solid filled" rx="0"></rect><rect x="72" y="80" width="8" height="16" class="solid filled" rx="0"></rect><rect x="80" y="80" width="8" height="16" class="solid filled" rx="0"></rect><rect x="0" y="96" width="8" height="16" class="solid filled" rx="0"></rect><rect x="8" y="96" width="8" height="16" class="solid filled" rx="0"></rect><rect x="16" y="96" width="8" height="16" class="solid filled" rx="0"></rect><rect x="32" y="104" width="8" height="8" class="solid filled" rx="0"></rect><rect x="40" y="96" width="8" height="16" class="solid filled" rx="0"></rect><rect x="48" y="104" width="8" height="8" class="solid filled" rx="0"></rect><rect x="64" y="96" width="8" height="16" class="solid filled" rx="0"></rect><rect x="72" y="96" width="8" height="16" class="solid filled" rx="0"></rect><rect x="80" y="96" width="8" height="16" class="solid filled" rx="0"></rect><text x="10" y="124" >▀</text><rect x="16" y="112" width="8" height="16" class="solid filled" rx="0"></rect><rect x="24" y="112" width="8" height="16" class="solid filled" rx="0"></rect><rect x="32" y="112" width="8" height="16" class="solid filled" rx="0"></rect><text x="42" y="124" >▀</text><rect x="48" y="112" width="8" height="16" class="solid filled" rx="0"></rect><rect x="56" y="112" width="8" height="16" class="solid filled" rx="0"></rect><rect x="64" y="112" width="8" height="16" class="solid filled" rx="0"></rect><text x="74" y="124" >▀</text><rect x="120" y="8" width="8" height="8" class="solid filled" rx="0"></rect><rect x="128" y="0" width="8" height="16" class="solid filled" rx="0"></rect><rect x="168" y="0" width="8" height="16" class="solid filled" rx="0"></rect><rect x="176" y="8" width="8" height="8" class="solid filled" rx="0"></rect><rect x="112" y="16" width="8" height="16" class="solid filled" rx="0"></rect><rect x="120" y="16" width="8" height="16" class="solid filled" rx="0"></rect><rect x="128" y="16" width="8" height="16" class="solid filled" rx="0"></rect><rect x="168" y="16" width="8" height="16" class="solid filled" rx="0"></rect><rect x="176" y="16" width="8" height="16" class="solid filled" rx="0"></rect><rect x="184" y="16" width="8" height="16" class="solid filled" rx="0"></rect><rect x="112" y="32" width="8" height="16" class="solid filled" rx="0"></rect><rect x="120" y="32" width="8" height="16" class="solid filled" rx="0"></rect><rect x="128" y="32" width="8" height="16" class="solid filled" rx="0"></rect><rect x="168" y="32" width="8" height="16" class="solid filled" rx="0"></rect><rect x="176" y="32" width="8" height="16" class="solid filled" rx="0"></rect><rect x="184" y="32" width="8" height="16" class="solid filled" rx="0"></rect><rect x="104" y="56" width="8" height="8" class="solid filled" rx="0"></rect><rect x="112" y="48" width="8" height="16" class="solid filled" rx="0"></rect><rect x="120" y="48" width="8" height="16" class="solid filled" rx="0"></rect><rect x="128" y="48" width="8" height="16" class="solid filled" rx="0"></rect><rect x="136" y="56" width="8" height="8" class="solid filled" rx="0"></rect><rect x="144" y="56" width="8" height="8" class="solid filled" rx="0"></rect><rect x="152" y="56" width="8" height="8" class="solid filled" rx="0"></rect><rect x="160" y="56" width="8" height="8" class="solid filled" rx="0"></rect><rect x="168" y="48" width="8" height="16" class="solid filled" rx="0"></rect><rect x="176" y="48" width="8" height="16" class="solid filled" rx="0"></rect><rect x="184" y="48" width="8" height="16" class="solid filled" rx="0"></rect><rect x="192" y="56" width="8" height="8" class="solid filled" rx="0"></rect><rect x="200" y="56" width="8" height="8" class="solid filled" rx="0"></rect><rect x="112" y="64" width="8" height="16" class="solid filled" rx="0"></rect><rect x="120" y="64" width="8" height="16" class="solid filled" rx="0"></rect><rect x="128" y="64" width="8" height="16" class="solid filled" rx="0"></rect><rect x="168" y="64" width="8" height="16" class="solid filled" rx="0"></rect><rect x="176" y="64" width="8" height="16" class="solid filled" rx="0"></rect><rect x="184" y="64" width="8" height="16" class="solid filled" rx="0"></rect><text x="194" y="76" >▀</text><rect x="112" y="80" width="8" height="16" class="solid filled" rx="0"></rect><rect x="120" y="80" width="8" height="16" class="solid filled" rx="0"></rect><rect x="128" y="80" width="8" height="16" class="solid filled" rx="0"></rect><rect x="168" y="80" width="8" height="16" class="solid filled" rx="0"></rect><rect x="176" y="80" width="8" height="16" class="solid filled" rx="0"></rect><rect x="184" y="80" width="8" height="16" class="solid filled" rx="0"></rect><rect x="112" y="96" width="8" height="16" class="solid filled" rx="0"></rect><rect x="120" y="96" width="8" height="16" class="solid filled" rx="0"></rect><rect x="128" y="96" width="8" height="16" class="solid filled" rx="0"></rect><rect x="168" y="96" width="8" height="16" class="solid filled" rx="0"></rect><rect x="176" y="96" width="8" height="16" class="solid filled" rx="0"></rect><rect x="184" y="96" width="8" height="16" class="solid filled" rx="0"></rect><rect x="112" y="112" width="8" height="16" class="solid filled" rx="0"></rect><rect x="120" y="112" width="8" height="16" class="solid filled" rx="0"></rect><rect x="128" y="112" width="8" height="16" class="solid filled" rx="0"></rect><rect x="168" y="112" width="8" height="16" class="solid filled" rx="0"></rect><text x="178" y="124" >▀</text><rect x="224" y="8" width="8" height="8" class="solid filled" rx="0"></rect><rect x="232" y="0" width="8" height="16" class="solid filled" rx="0"></rect><rect x="240" y="0" width="8" height="16" class="solid filled" rx="0"></rect><rect x="248" y="0" width="8" height="16" class="solid filled" rx="0"></rect><rect x="256" y="0" width="8" height="16" class="solid filled" rx="0"></rect><rect x="264" y="0" width="8" height="16" class="solid filled" rx="0"></rect><rect x="272" y="0" width="8" height="16" class="solid filled" rx="0"></rect><rect x="280" y="8" width="8" height="8" class="solid filled" rx="0"></rect><rect x="216" y="16" width="8" height="16" class="solid filled" rx="0"></rect><rect x="224" y="16" width="8" height="16" class="solid filled" rx="0"></rect><rect x="232" y="16" width="8" height="16" class="solid filled" rx="0"></rect><rect x="272" y="16" width="8" height="16" class="solid filled" rx="0"></rect><rect x="280" y="16" width="8" height="16" class="solid filled" rx="0"></rect><rect x="288" y="16" width="8" height="16" class="solid filled" rx="0"></rect><rect x="216" y="32" width="8" height="16" class="solid filled" rx="0"></rect><rect x="224" y="32" width="8" height="16" class="solid filled" rx="0"></rect><rect x="232" y="32" width="8" height="16" class="solid filled" rx="0"></rect><rect x="272" y="32" width="8" height="16" class="solid filled" rx="0"></rect><rect x="280" y="32" width="8" height="16" class="solid filled" rx="0"></rect><rect x="288" y="32" width="8" height="16" class="solid filled" rx="0"></rect><rect x="216" y="48" width="8" height="16" class="solid filled" rx="0"></rect><rect x="224" y="48" width="8" height="16" class="solid filled" rx="0"></rect><rect x="232" y="48" width="8" height="16" class="solid filled" rx="0"></rect><rect x="272" y="48" width="8" height="16" class="solid filled" rx="0"></rect><rect x="280" y="48" width="8" height="16" class="solid filled" rx="0"></rect><rect x="288" y="48" width="8" height="16" class="solid filled" rx="0"></rect><rect x="216" y="64" width="8" height="16" class="solid filled" rx="0"></rect><rect x="224" y="64" width="8" height="16" class="solid filled" rx="0"></rect><rect x="232" y="64" width="8" height="16" class="solid filled" rx="0"></rect><rect x="272" y="64" width="8" height="16" class="solid filled" rx="0"></rect><rect x="280" y="64" width="8" height="16" class="solid filled" rx="0"></rect><rect x="288" y="64" width="8" height="16" class="solid filled" rx="0"></rect><rect x="216" y="80" width="8" height="16" class="solid filled" rx="0"></rect><rect x="224" y="80" width="8" height="16" class="solid filled" rx="0"></rect><rect x="232" y="80" width="8" height="16" class="solid filled" rx="0"></rect><rect x="272" y="80" width="8" height="16" class="solid filled" rx="0"></rect><rect x="280" y="80" width="8" height="16" class="solid filled" rx="0"></rect><rect x="288" y="80" width="8" height="16" class="solid filled" rx="0"></rect><rect x="216" y="96" width="8" height="16" class="solid filled" rx="0"></rect><rect x="224" y="96" width="8" height="16" class="solid filled" rx="0"></rect><rect x="232" y="96" width="8" height="16" class="solid filled" rx="0"></rect><rect x="272" y="96" width="8" height="16" class="solid filled" rx="0"></rect><rect x="280" y="96" width="8" height="16" class="solid filled" rx="0"></rect><rect x="288" y="96" width="8" height="16" class="solid filled" rx="0"></rect><text x="226" y="124" >▀</text><rect x="232" y="112" width="8" height="16" class="solid filled" rx="0"></rect><rect x="240" y="112" width="8" height="16" class="solid filled" rx="0"></rect><rect x="248" y="112" width="8" height="16" class="solid filled" rx="0"></rect><rect x="256" y="112" width="8" height="16" class="solid filled" rx="0"></rect><rect x="264" y="112" width="8" height="16" class="solid filled" rx="0"></rect><rect x="272" y="112" width="8" height="16" class="solid filled" rx="0"></rect><text x="282" y="124" >▀</text><rect x="328" y="8" width="8" height="8" class="solid filled" rx="0"></rect><rect x="336" y="0" width="8" height="16" class="solid filled" rx="0"></rect><rect x="344" y="0" width="8" height="16" class="solid filled" rx="0"></rect><rect x="352" y="0" width="8" height="16" class="solid filled" rx="0"></rect><rect x="360" y="0" width="8" height="16" class="solid filled" rx="0"></rect><rect x="368" y="0" width="8" height="16" class="solid filled" rx="0"></rect><rect x="376" y="0" width="8" height="16" class="solid filled" rx="0"></rect><rect x="384" y="0" width="8" height="16" class="solid filled" rx="0"></rect><rect x="392" y="0" width="8" height="16" class="solid filled" rx="0"></rect><rect x="320" y="16" width="8" height="16" class="solid filled" rx="0"></rect><rect x="328" y="16" width="8" height="16" class="solid filled" rx="0"></rect><rect x="336" y="16" width="8" height="16" class="solid filled" rx="0"></rect><rect x="376" y="16" width="8" height="16" class="solid filled" rx="0"></rect><rect x="384" y="16" width="8" height="16" class="solid filled" rx="0"></rect><rect x="392" y="16" width="8" height="16" class="solid filled" rx="0"></rect><rect x="320" y="32" width="8" height="16" class="solid filled" rx="0"></rect><rect x="328" y="32" width="8" height="16" class="solid filled" rx="0"></rect><rect x="336" y="32" width="8" height="16" class="solid filled" rx="0"></rect><rect x="376" y="32" width="8" height="16" class="solid filled" rx="0"></rect><rect x="384" y="32" width="8" height="16" class="solid filled" rx="0"></rect><rect x="392" y="32" width="8" height="16" class="solid filled" rx="0"></rect><rect x="320" y="48" width="8" height="16" class="solid filled" rx="0"></rect><rect x="328" y="48" width="8" height="16" class="solid filled" rx="0"></rect><rect x="336" y="48" width="8" height="16" class="solid filled" rx="0"></rect><rect x="376" y="48" width="8" height="16" class="solid filled" rx="0"></rect><rect x="384" y="48" width="8" height="16" class="solid filled" rx="0"></rect><rect x="392" y="48" width="8" height="16" class="solid filled" rx="0"></rect><text x="306" y="76" >▀</text><rect x="312" y="64" width="8" height="16" class="solid filled" rx="0"></rect><rect x="320" y="64" width="8" height="16" class="solid filled" rx="0"></rect><rect x="328" y="64" width="8" height="16" class="solid filled" rx="0"></rect><rect x="336" y="64" width="8" height="16" class="solid filled" rx="0"></rect><rect x="344" y="64" width="8" height="16" class="solid filled" rx="0"></rect><rect x="352" y="64" width="8" height="16" class="solid filled" rx="0"></rect><rect x="360" y="64" width="8" height="16" class="solid filled" rx="0"></rect><rect x="368" y="64" width="8" height="16" class="solid filled" rx="0"></rect><rect x="376" y="64" width="8" height="16" class="solid filled" rx="0"></rect><rect x="384" y="64" width="8" height="16" class="solid filled" rx="0"></rect><rect x="392" y="64" width="8" height="16" class="solid filled" rx="0"></rect><rect x="320" y="80" width="8" height="16" class="solid filled" rx="0"></rect><rect x="328" y="80" width="8" height="16" class="solid filled" rx="0"></rect><rect x="336" y="80" width="8" height="16" class="solid filled" rx="0"></rect><rect x="376" y="80" width="8" height="16" class="solid filled" rx="0"></rect><rect x="384" y="80" width="8" height="16" class="solid filled" rx="0"></rect><rect x="392" y="80" width="8" height="16" class="solid filled" rx="0"></rect><rect x="320" y="96" width="8" height="16" class="solid filled" rx="0"></rect><rect x="328" y="96" width="8" height="16" class="solid filled" rx="0"></rect><rect x="336" y="96" width="8" height="16" class="solid filled" rx="0"></rect><rect x="376" y="96" width="8" height="16" class="solid filled" rx="0"></rect><rect x="384" y="96" width="8" height="16" class="solid filled" rx="0"></rect><rect x="392" y="96" width="8" height="16" class="solid filled" rx="0"></rect><rect x="320" y="112" width="8" height="16" class="solid filled" rx="0"></rect><rect x="328" y="112" width="8" height="16" class="solid filled" rx="0"></rect><rect x="336" y="112" width="8" height="16" class="solid filled" rx="0"></rect><rect x="376" y="112" width="8" height="16" class="solid filled" rx="0"></rect><text x="386" y="124" >▀</text><rect x="424" y="8" width="8" height="8" class="solid filled" rx="0"></rect><rect x="432" y="8" width="8" height="8" class="solid filled" rx="0"></rect><rect x="440" y="8" width="8" height="8" class="solid filled" rx="0"></rect><rect x="448" y="8" width="8" height="8" class="solid filled" rx="0"></rect><rect x="456" y="0" width="8" height="16" class="solid filled" rx="0"></rect><rect x="464" y="0" width="8" height="16" class="solid filled" rx="0"></rect><rect x="472" y="0" width="8" height="16" class="solid filled" rx="0"></rect><rect x="480" y="8" width="8" height="8" class="solid filled" rx="0"></rect><rect x="488" y="8" width="8" height="8" class="solid filled" rx="0"></rect><rect x="496" y="8" width="8" height="8" class="solid filled" rx="0"></rect><rect x="504" y="8" width="8" height="8" class="solid filled" rx="0"></rect><rect x="408" y="24" width="8" height="8" class="solid filled" rx="0"></rect><rect x="416" y="16" width="8" height="16" class="solid filled" rx="0"></rect><rect x="424" y="16" width="8" height="16" class="solid filled" rx="0"></rect><rect x="456" y="16" width="8" height="16" class="solid filled" rx="0"></rect><rect x="464" y="16" width="8" height="16" class="solid filled" rx="0"></rect><rect x="472" y="16" width="8" height="16" class="solid filled" rx="0"></rect><rect x="504" y="16" width="8" height="16" class="solid filled" rx="0"></rect><rect x="512" y="16" width="8" height="16" class="solid filled" rx="0"></rect><rect x="520" y="24" width="8" height="8" class="solid filled" rx="0"></rect><rect x="408" y="32" width="8" height="16" class="solid filled" rx="0"></rect><rect x="416" y="32" width="8" height="16" class="solid filled" rx="0"></rect><rect x="424" y="32" width="8" height="16" class="solid filled" rx="0"></rect><rect x="456" y="32" width="8" height="16" class="solid filled" rx="0"></rect><rect x="464" y="32" width="8" height="16" class="solid filled" rx="0"></rect><rect x="472" y="32" width="8" height="16" class="solid filled" rx="0"></rect><rect x="504" y="32" width="8" height="16" class="solid filled" rx="0"></rect><rect x="512" y="32" width="8" height="16" class="solid filled" rx="0"></rect><rect x="520" y="32" width="8" height="16" class="solid filled" rx="0"></rect><rect x="408" y="48" width="8" height="16" class="solid filled" rx="0"></rect><rect x="416" y="48" width="8" height="16" class="solid filled" rx="0"></rect><rect x="424" y="48" width="8" height="16" class="solid filled" rx="0"></rect><rect x="456" y="48" width="8" height="16" class="solid filled" rx="0"></rect><rect x="464" y="48" width="8" height="16" class="solid filled" rx="0"></rect><rect x="472" y="48" width="8" height="16" class="solid filled" rx="0"></rect><rect x="504" y="48" width="8" height="16" class="solid filled" rx="0"></rect><rect x="512" y="48" width="8" height="16" class="solid filled" rx="0"></rect><rect x="520" y="48" width="8" height="16" class="solid filled" rx="0"></rect><rect x="408" y="64" width="8" height="16" class="solid filled" rx="0"></rect><rect x="416" y="64" width="8" height="16" class="solid filled" rx="0"></rect><rect x="424" y="64" width="8" height="16" class="solid filled" rx="0"></rect><rect x="456" y="64" width="8" height="16" class="solid filled" rx="0"></rect><rect x="464" y="64" width="8" height="16" class="solid filled" rx="0"></rect><rect x="472" y="64" width="8" height="16" class="solid filled" rx="0"></rect><rect x="504" y="64" width="8" height="16" class="solid filled" rx="0"></rect><rect x="512" y="64" width="8" height="16" class="solid filled" rx="0"></rect><rect x="520" y="64" width="8" height="16" class="solid filled" rx="0"></rect><rect x="408" y="80" width="8" height="16" class="solid filled" rx="0"></rect><rect x="416" y="80" width="8" height="16" class="solid filled" rx="0"></rect><rect x="424" y="80" width="8" height="16" class="solid filled" rx="0"></rect><rect x="456" y="80" width="8" height="16" class="solid filled" rx="0"></rect><rect x="464" y="80" width="8" height="16" class="solid filled" rx="0"></rect><rect x="472" y="80" width="8" height="16" class="solid filled" rx="0"></rect><rect x="504" y="80" width="8" height="16" class="solid filled" rx="0"></rect><rect x="512" y="80" width="8" height="16" class="solid filled" rx="0"></rect><rect x="520" y="80" width="8" height="16" class="solid filled" rx="0"></rect><rect x="408" y="96" width="8" height="16" class="solid filled" rx="0"></rect><rect x="416" y="96" width="8" height="16" class="solid filled" rx="0"></rect><rect x="424" y="96" width="8" height="16" class="solid filled" rx="0"></rect><rect x="456" y="96" width="8" height="16" class="solid filled" rx="0"></rect><rect x="464" y="96" width="8" height="16" class="solid filled" rx="0"></rect><rect x="472" y="96" width="8" height="16" class="solid filled" rx="0"></rect><rect x="504" y="96" width="8" height="16" class="solid filled" rx="0"></rect><rect x="512" y="96" width="8" height="16" class="solid filled" rx="0"></rect><rect x="520" y="96" width="8" height="16" class="solid filled" rx="0"></rect><text x="418" y="124" >▀</text><rect x="424" y="112" width="8" height="16" class="solid filled" rx="0"></rect><rect x="456" y="112" width="8" height="16" class="solid filled" rx="0"></rect><rect x="464" y="112" width="8" height="16" class="solid filled" rx="0"></rect><rect x="472" y="112" width="8" height="16" class="solid filled" rx="0"></rect><rect x="504" y="112" width="8" height="16" class="solid filled" rx="0"></rect><text x="514" y="124" >▀</text><rect x="544" y="8" width="8" height="8" class="solid filled" rx="0"></rect><rect x="552" y="0" width="8" height="16" class="solid filled" rx="0"></rect><rect x="536" y="16" width="8" height="16" class="solid filled" rx="0"></rect><rect x="544" y="16" width="8" height="16" class="solid filled" rx="0"></rect><rect x="552" y="16" width="8" height="16" class="solid filled" rx="0"></rect><rect x="536" y="32" width="8" height="16" class="solid filled" rx="0"></rect><rect x="544" y="32" width="8" height="16" class="solid filled" rx="0"></rect><rect x="552" y="32" width="8" height="16" class="solid filled" rx="0"></rect><text x="562" y="44" >▌</text><rect x="536" y="48" width="8" height="16" class="solid filled" rx="0"></rect><rect x="544" y="48" width="8" height="16" class="solid filled" rx="0"></rect><rect x="552" y="48" width="8" height="16" class="solid filled" rx="0"></rect><text x="562" y="60" >▌</text><rect x="536" y="64" width="8" height="16" class="solid filled" rx="0"></rect><rect x="544" y="64" width="8" height="16" class="solid filled" rx="0"></rect><rect x="552" y="64" width="8" height="16" class="solid filled" rx="0"></rect><text x="562" y="76" >▌</text><rect x="536" y="80" width="8" height="16" class="solid filled" rx="0"></rect><rect x="544" y="80" width="8" height="16" class="solid filled" rx="0"></rect><rect x="552" y="80" width="8" height="16" class="solid filled" rx="0"></rect><rect x="536" y="96" width="8" height="16" class="solid filled" rx="0"></rect><rect x="544" y="96" width="8" height="16" class="solid filled" rx="0"></rect><rect x="552" y="96" width="8" height="16" class="solid filled" rx="0"></rect><rect x="536" y="112" width="8" height="16" class="solid filled" rx="0"></rect><text x="546" y="124" >▀</text><g><text x="98" y="76">▀</text><text x="106" y="76">▀</text></g><g><text x="138" y="76">▀▀</text><text x="146" y="76">▀</text><text x="154" y="76">▀</text></g><g><text x="434" y="28">▀</text><text x="442" y="28">▀</text><text x="450" y="28">▀</text></g><g><text x="482" y="28">▀</text><text x="490" y="28">▀</text><text x="498" y="28">▀</text></g></svg>